# Exported from Wings 3D 2.3
mtllib Pillar.mtl
o Torus3
#128 vertices, 128 faces
v 1.25000000 2.57492717 0.0000000e+0
v 1.17677670 2.39815047 0.0000000e+0
v 1.00000000 2.32492717 0.0000000e+0
v 0.82322330 2.39815047 0.0000000e+0
v 0.75000000 2.57492717 0.0000000e+0
v 0.82322330 2.75170386 0.0000000e+0
v 1.00000000 2.82492717 0.0000000e+0
v 1.17677670 2.75170386 0.0000000e+0
v 1.15484942 2.57492717 0.47835429
v 1.08719990 2.39815047 0.45033294
v 0.92387953 2.32492717 0.38268343
v 0.76055916 2.39815047 0.31503392
v 0.69290965 2.57492717 0.28701257
v 0.76055916 2.75170386 0.31503392
v 0.92387953 2.82492717 0.38268343
v 1.08719990 2.75170386 0.45033294
v 0.88388348 2.57492717 0.88388348
v 0.83210678 2.39815047 0.83210678
v 0.70710678 2.32492717 0.70710678
v 0.58210678 2.39815047 0.58210678
v 0.53033009 2.57492717 0.53033009
v 0.58210678 2.75170386 0.58210678
v 0.70710678 2.82492717 0.70710678
v 0.83210678 2.75170386 0.83210678
v 0.47835429 2.57492717 1.15484942
v 0.45033294 2.39815047 1.08719990
v 0.38268343 2.32492717 0.92387953
v 0.31503392 2.39815047 0.76055916
v 0.28701257 2.57492717 0.69290965
v 0.31503392 2.75170386 0.76055916
v 0.38268343 2.82492717 0.92387953
v 0.45033294 2.75170386 1.08719990
v 7.6540425e-17 2.57492717 1.25000000
v 7.2056791e-17 2.39815047 1.17677670
v 6.1232340e-17 2.32492717 1.00000000
v 5.0407889e-17 2.39815047 0.82322330
v 4.5924255e-17 2.57492717 0.75000000
v 5.0407889e-17 2.75170386 0.82322330
v 6.1232340e-17 2.82492717 1.00000000
v 7.2056791e-17 2.75170386 1.17677670
v -0.47835429 2.57492717 1.15484942
v -0.45033294 2.39815047 1.08719990
v -0.38268343 2.32492717 0.92387953
v -0.31503392 2.39815047 0.76055916
v -0.28701257 2.57492717 0.69290965
v -0.31503392 2.75170386 0.76055916
v -0.38268343 2.82492717 0.92387953
v -0.45033294 2.75170386 1.08719990
v -0.88388348 2.57492717 0.88388348
v -0.83210678 2.39815047 0.83210678
v -0.70710678 2.32492717 0.70710678
v -0.58210678 2.39815047 0.58210678
v -0.53033009 2.57492717 0.53033009
v -0.58210678 2.75170386 0.58210678
v -0.70710678 2.82492717 0.70710678
v -0.83210678 2.75170386 0.83210678
v -1.15484942 2.57492717 0.47835429
v -1.08719990 2.39815047 0.45033294
v -0.92387953 2.32492717 0.38268343
v -0.76055916 2.39815047 0.31503392
v -0.69290965 2.57492717 0.28701257
v -0.76055916 2.75170386 0.31503392
v -0.92387953 2.82492717 0.38268343
v -1.08719990 2.75170386 0.45033294
v -1.25000000 2.57492717 1.5308085e-16
v -1.17677670 2.39815047 1.4411358e-16
v -1.00000000 2.32492717 1.2246468e-16
v -0.82322330 2.39815047 1.0081578e-16
v -0.75000000 2.57492717 9.1848510e-17
v -0.82322330 2.75170386 1.0081578e-16
v -1.00000000 2.82492717 1.2246468e-16
v -1.17677670 2.75170386 1.4411358e-16
v -1.15484942 2.57492717 -0.47835429
v -1.08719990 2.39815047 -0.45033294
v -0.92387953 2.32492717 -0.38268343
v -0.76055916 2.39815047 -0.31503392
v -0.69290965 2.57492717 -0.28701257
v -0.76055916 2.75170386 -0.31503392
v -0.92387953 2.82492717 -0.38268343
v -1.08719990 2.75170386 -0.45033294
v -0.88388348 2.57492717 -0.88388348
v -0.83210678 2.39815047 -0.83210678
v -0.70710678 2.32492717 -0.70710678
v -0.58210678 2.39815047 -0.58210678
v -0.53033009 2.57492717 -0.53033009
v -0.58210678 2.75170386 -0.58210678
v -0.70710678 2.82492717 -0.70710678
v -0.83210678 2.75170386 -0.83210678
v -0.47835429 2.57492717 -1.15484942
v -0.45033294 2.39815047 -1.08719990
v -0.38268343 2.32492717 -0.92387953
v -0.31503392 2.39815047 -0.76055916
v -0.28701257 2.57492717 -0.69290965
v -0.31503392 2.75170386 -0.76055916
v -0.38268343 2.82492717 -0.92387953
v -0.45033294 2.75170386 -1.08719990
v -2.2962127e-16 2.57492717 -1.25000000
v -2.1617037e-16 2.39815047 -1.17677670
v -1.8369702e-16 2.32492717 -1.00000000
v -1.5122367e-16 2.39815047 -0.82322330
v -1.3777276e-16 2.57492717 -0.75000000
v -1.5122367e-16 2.75170386 -0.82322330
v -1.8369702e-16 2.82492717 -1.00000000
v -2.1617037e-16 2.75170386 -1.17677670
v 0.47835429 2.57492717 -1.15484942
v 0.45033294 2.39815047 -1.08719990
v 0.38268343 2.32492717 -0.92387953
v 0.31503392 2.39815047 -0.76055916
v 0.28701257 2.57492717 -0.69290965
v 0.31503392 2.75170386 -0.76055916
v 0.38268343 2.82492717 -0.92387953
v 0.45033294 2.75170386 -1.08719990
v 0.88388348 2.57492717 -0.88388348
v 0.83210678 2.39815047 -0.83210678
v 0.70710678 2.32492717 -0.70710678
v 0.58210678 2.39815047 -0.58210678
v 0.53033009 2.57492717 -0.53033009
v 0.58210678 2.75170386 -0.58210678
v 0.70710678 2.82492717 -0.70710678
v 0.83210678 2.75170386 -0.83210678
v 1.15484942 2.57492717 -0.47835429
v 1.08719990 2.39815047 -0.45033294
v 0.92387953 2.32492717 -0.38268343
v 0.76055916 2.39815047 -0.31503392
v 0.69290965 2.57492717 -0.28701257
v 0.76055916 2.75170386 -0.31503392
v 0.92387953 2.82492717 -0.38268343
v 1.08719990 2.75170386 -0.45033294
vn 1.00000000 5.3454624e-16 -2.0618212e-16
vn 0.70509498 -0.70911288 -1.2513545e-16
vn -1.5064665e-16 -1.00000000 -3.7661663e-18
vn -0.70509498 -0.70911288 2.2751899e-17
vn -1.00000000 -3.0545500e-16 3.8181875e-17
vn -0.70509498 0.70911288 3.0335865e-17
vn 1.8077598e-16 1.00000000 -1.1298499e-17
vn 0.70509498 0.70911288 -1.1375950e-16
vn 0.92387953 6.5672824e-16 0.38268343
vn 0.65142282 -0.70911288 0.26982817
vn -1.3558199e-16 -1.00000000 -6.0258661e-17
vn -0.65142282 -0.70911288 -0.26982817
vn -0.92387953 -2.9018225e-16 -0.38268343
vn -0.65142282 0.70911288 -0.26982817
vn 2.2596998e-16 1.00000000 9.7920325e-17
vn 0.65142282 0.70911288 0.26982817
vn 0.70710678 7.1781924e-16 0.70710678
vn 0.49857744 -0.70911288 0.49857744
vn -9.7920325e-17 -1.00000000 -1.0545266e-16
vn -0.49857744 -0.70911288 -0.49857744
vn -0.70710678 -3.0545500e-16 -0.70710678
vn -0.49857744 0.70911288 -0.49857744
vn 2.2596998e-16 1.00000000 1.9584065e-16
vn 0.49857744 0.70911288 0.49857744
vn 0.38268343 5.9563724e-16 0.92387953
vn 0.26982817 -0.70911288 0.65142282
vn -6.0258661e-17 -1.00000000 -1.3558199e-16
vn -0.26982817 -0.70911288 -0.65142282
vn -0.38268343 -3.2072775e-16 -0.92387953
vn -0.26982817 0.70911288 -0.65142282
vn 9.7920325e-17 1.00000000 1.9584065e-16
vn 0.26982817 0.70911288 0.65142282
vn -1.5272750e-17 5.3454624e-16 1.00000000
vn -3.7919832e-18 -0.70911288 0.70509498
vn 0.0000000e+0 -1.00000000 -1.5064665e-16
vn -7.5839664e-18 -0.70911288 -0.70509498
vn 0.0000000e+0 -2.9018225e-16 -1.00000000
vn -3.7919832e-18 0.70911288 -0.70509498
vn -3.7661663e-18 1.00000000 1.8077598e-16
vn -1.5167933e-17 0.70911288 0.70509498
vn -0.38268343 6.1090999e-16 0.92387953
vn -0.26982817 -0.70911288 0.65142282
vn 6.0258661e-17 -1.00000000 -1.3558199e-16
vn 0.26982817 -0.70911288 -0.65142282
vn 0.38268343 -3.2072775e-16 -0.92387953
vn 0.26982817 0.70911288 -0.65142282
vn -9.7920325e-17 1.00000000 2.1090531e-16
vn -0.26982817 0.70911288 0.65142282
vn -0.70710678 6.7200099e-16 0.70710678
vn -0.49857744 -0.70911288 0.49857744
vn 7.5323327e-17 -1.00000000 -1.1298499e-16
vn 0.49857744 -0.70911288 -0.49857744
vn 0.70710678 -3.3600050e-16 -0.70710678
vn 0.49857744 0.70911288 -0.49857744
vn -1.9584065e-16 1.00000000 1.9584065e-16
vn -0.49857744 0.70911288 0.49857744
vn -0.92387953 5.9563724e-16 0.38268343
vn -0.65142282 -0.70911288 0.26982817
vn 1.3558199e-16 -1.00000000 -7.5323327e-17
vn 0.65142282 -0.70911288 -0.26982817
vn 0.92387953 -3.0545500e-16 -0.38268343
vn 0.65142282 0.70911288 -0.26982817
vn -1.9584065e-16 1.00000000 8.6621826e-17
vn -0.65142282 0.70911288 0.26982817
vn -1.00000000 4.1236425e-16 7.6363749e-17
vn -0.70509498 -0.70911288 2.2751899e-17
vn 1.2051732e-16 -1.00000000 -3.3895497e-17
vn 0.70509498 -0.70911288 -1.5167933e-16
vn 1.00000000 -2.7490950e-16 -1.9854575e-16
vn 0.70509498 0.70911288 -1.3651139e-16
vn -1.6571132e-16 1.00000000 7.5323327e-18
vn -0.70509498 0.70911288 9.8591563e-17
vn -0.92387953 3.5127325e-16 -0.38268343
vn -0.65142282 -0.70911288 -0.26982817
vn 6.0258661e-17 -1.00000000 3.0129331e-17
vn 0.65142282 -0.70911288 0.26982817
vn 0.92387953 -2.9018225e-16 0.38268343
vn 0.65142282 0.70911288 0.26982817
vn -1.8077598e-16 1.00000000 -9.0387992e-17
vn -0.65142282 0.70911288 -0.26982817
vn -0.70710678 5.6509174e-16 -0.70710678
vn -0.49857744 -0.70911288 -0.49857744
vn 1.1298499e-16 -1.00000000 1.3558199e-16
vn 0.49857744 -0.70911288 0.49857744
vn 0.70710678 -3.3600050e-16 0.70710678
vn 0.49857744 0.70911288 0.49857744
vn -1.6571132e-16 1.00000000 -1.8077598e-16
vn -0.49857744 0.70911288 -0.49857744
vn -0.38268343 6.2618274e-16 -0.92387953
vn -0.26982817 -0.70911288 -0.65142282
vn 1.0545266e-16 -1.00000000 1.8077598e-16
vn 0.26982817 -0.70911288 0.65142282
vn 0.38268343 -3.2072775e-16 0.92387953
vn 0.26982817 0.70911288 0.65142282
vn -8.6621826e-17 1.00000000 -1.8077598e-16
vn -0.26982817 0.70911288 -0.65142282
vn -1.3745475e-16 5.3454624e-16 -1.00000000
vn -7.2047680e-17 -0.70911288 -0.70509498
vn 1.5064665e-17 -1.00000000 1.2051732e-16
vn 6.0671731e-17 -0.70911288 0.70509498
vn 7.6363749e-17 -2.9018225e-16 1.00000000
vn 5.3087765e-17 0.70911288 0.70509498
vn 1.1298499e-17 1.00000000 -2.4103464e-16
vn -8.3423630e-17 0.70911288 -0.70509498
vn 0.38268343 5.8036449e-16 -0.92387953
vn 0.26982817 -0.70911288 -0.65142282
vn -2.2596998e-17 -1.00000000 7.5323327e-17
vn -0.26982817 -0.70911288 0.65142282
vn -0.38268343 -2.9018225e-16 0.92387953
vn -0.26982817 0.70911288 0.65142282
vn 1.1298499e-16 1.00000000 -2.5609931e-16
vn 0.26982817 0.70911288 -0.65142282
vn 0.70710678 5.6509174e-16 -0.70710678
vn 0.49857744 -0.70911288 -0.49857744
vn -1.0545266e-16 -1.00000000 1.0545266e-16
vn -0.49857744 -0.70911288 0.49857744
vn -0.70710678 -2.4436400e-16 0.70710678
vn -0.49857744 0.70911288 0.49857744
vn 1.8077598e-16 1.00000000 -1.7324365e-16
vn 0.49857744 0.70911288 -0.49857744
vn 0.92387953 5.1927349e-16 -0.38268343
vn 0.65142282 -0.70911288 -0.26982817
vn -1.6571132e-16 -1.00000000 7.9089493e-17
vn -0.65142282 -0.70911288 0.26982817
vn -0.92387953 -2.4436400e-16 0.38268343
vn -0.65142282 0.70911288 0.26982817
vn 1.9584065e-16 1.00000000 -9.0387992e-17
vn 0.65142282 0.70911288 -0.26982817
g Torus3_default
usemtl default
s 1
f 1//1 9//9 10//10 2//2
f 1//1 121//121 128//128 8//8
f 2//2 10//10 11//11 3//3
f 2//2 122//122 121//121 1//1
f 3//3 11//11 12//12 4//4
f 3//3 123//123 122//122 2//2
f 4//4 12//12 13//13 5//5
f 4//4 124//124 123//123 3//3
f 5//5 13//13 14//14 6//6
f 5//5 125//125 124//124 4//4
f 6//6 14//14 15//15 7//7
f 6//6 126//126 125//125 5//5
f 7//7 15//15 16//16 8//8
f 7//7 127//127 126//126 6//6
f 8//8 16//16 9//9 1//1
f 8//8 128//128 127//127 7//7
f 9//9 17//17 18//18 10//10
f 10//10 18//18 19//19 11//11
f 11//11 19//19 20//20 12//12
f 12//12 20//20 21//21 13//13
f 13//13 21//21 22//22 14//14
f 14//14 22//22 23//23 15//15
f 15//15 23//23 24//24 16//16
f 16//16 24//24 17//17 9//9
f 17//17 25//25 26//26 18//18
f 18//18 26//26 27//27 19//19
f 19//19 27//27 28//28 20//20
f 20//20 28//28 29//29 21//21
f 21//21 29//29 30//30 22//22
f 22//22 30//30 31//31 23//23
f 23//23 31//31 32//32 24//24
f 24//24 32//32 25//25 17//17
f 25//25 33//33 34//34 26//26
f 26//26 34//34 35//35 27//27
f 27//27 35//35 36//36 28//28
f 28//28 36//36 37//37 29//29
f 29//29 37//37 38//38 30//30
f 30//30 38//38 39//39 31//31
f 31//31 39//39 40//40 32//32
f 32//32 40//40 33//33 25//25
f 33//33 41//41 42//42 34//34
f 34//34 42//42 43//43 35//35
f 35//35 43//43 44//44 36//36
f 36//36 44//44 45//45 37//37
f 37//37 45//45 46//46 38//38
f 38//38 46//46 47//47 39//39
f 39//39 47//47 48//48 40//40
f 40//40 48//48 41//41 33//33
f 41//41 49//49 50//50 42//42
f 42//42 50//50 51//51 43//43
f 43//43 51//51 52//52 44//44
f 44//44 52//52 53//53 45//45
f 45//45 53//53 54//54 46//46
f 46//46 54//54 55//55 47//47
f 47//47 55//55 56//56 48//48
f 48//48 56//56 49//49 41//41
f 49//49 57//57 58//58 50//50
f 50//50 58//58 59//59 51//51
f 51//51 59//59 60//60 52//52
f 52//52 60//60 61//61 53//53
f 53//53 61//61 62//62 54//54
f 54//54 62//62 63//63 55//55
f 55//55 63//63 64//64 56//56
f 56//56 64//64 57//57 49//49
f 57//57 65//65 66//66 58//58
f 58//58 66//66 67//67 59//59
f 59//59 67//67 68//68 60//60
f 60//60 68//68 69//69 61//61
f 61//61 69//69 70//70 62//62
f 62//62 70//70 71//71 63//63
f 63//63 71//71 72//72 64//64
f 64//64 72//72 65//65 57//57
f 65//65 73//73 74//74 66//66
f 66//66 74//74 75//75 67//67
f 67//67 75//75 76//76 68//68
f 68//68 76//76 77//77 69//69
f 69//69 77//77 78//78 70//70
f 70//70 78//78 79//79 71//71
f 71//71 79//79 80//80 72//72
f 72//72 80//80 73//73 65//65
f 73//73 81//81 82//82 74//74
f 74//74 82//82 83//83 75//75
f 75//75 83//83 84//84 76//76
f 76//76 84//84 85//85 77//77
f 77//77 85//85 86//86 78//78
f 78//78 86//86 87//87 79//79
f 79//79 87//87 88//88 80//80
f 80//80 88//88 81//81 73//73
f 81//81 89//89 90//90 82//82
f 82//82 90//90 91//91 83//83
f 83//83 91//91 92//92 84//84
f 84//84 92//92 93//93 85//85
f 85//85 93//93 94//94 86//86
f 86//86 94//94 95//95 87//87
f 87//87 95//95 96//96 88//88
f 88//88 96//96 89//89 81//81
f 89//89 97//97 98//98 90//90
f 90//90 98//98 99//99 91//91
f 91//91 99//99 100//100 92//92
f 92//92 100//100 101//101 93//93
f 93//93 101//101 102//102 94//94
f 94//94 102//102 103//103 95//95
f 95//95 103//103 104//104 96//96
f 96//96 104//104 97//97 89//89
f 97//97 105//105 106//106 98//98
f 98//98 106//106 107//107 99//99
f 99//99 107//107 108//108 100//100
f 100//100 108//108 109//109 101//101
f 101//101 109//109 110//110 102//102
f 102//102 110//110 111//111 103//103
f 103//103 111//111 112//112 104//104
f 104//104 112//112 105//105 97//97
f 105//105 113//113 114//114 106//106
f 106//106 114//114 115//115 107//107
f 107//107 115//115 116//116 108//108
f 108//108 116//116 117//117 109//109
f 109//109 117//117 118//118 110//110
f 110//110 118//118 119//119 111//111
f 111//111 119//119 120//120 112//112
f 112//112 120//120 113//113 105//105
f 113//113 121//121 122//122 114//114
f 114//114 122//122 123//123 115//115
f 115//115 123//123 124//124 116//116
f 116//116 124//124 125//125 117//117
f 117//117 125//125 126//126 118//118
f 118//118 126//126 127//127 119//119
f 119//119 127//127 128//128 120//120
f 120//120 128//128 121//121 113//113
o Cylinder2
#32 vertices, 18 faces
v 0.98959600 22.59023307 2.0872054e-18
v 0.91426749 22.59023307 0.37870199
v 0.69975004 22.59023307 0.69975004
v 0.37870199 22.59023307 0.91426749
v 6.0833796e-17 22.59023307 0.98959600
v -0.37870199 22.59023307 0.91426749
v -0.69975004 22.59023307 0.69975004
v -0.91426749 22.59023307 0.37870199
v -0.98959600 22.59023307 1.2327776e-16
v -0.91426749 22.59023307 -0.37870199
v -0.69975004 22.59023307 -0.69975004
v -0.37870199 22.59023307 -0.91426749
v -1.8154732e-16 22.59023307 -0.98959600
v 0.37870199 22.59023307 -0.91426749
v 0.69975004 22.59023307 -0.69975004
v 0.91426749 22.59023307 -0.37870199
v 0.98959600 0.99310536 2.0872054e-18
v 0.91426749 0.99310536 0.37870199
v 0.69975004 0.99310536 0.69975004
v 0.37870199 0.99310536 0.91426749
v 6.0833796e-17 0.99310536 0.98959600
v -0.37870199 0.99310536 0.91426749
v -0.69975004 0.99310536 0.69975004
v -0.91426749 0.99310536 0.37870199
v -0.98959600 0.99310536 1.2327776e-16
v -0.91426749 0.99310536 -0.37870199
v -0.69975004 0.99310536 -0.69975004
v -0.37870199 0.99310536 -0.91426749
v -1.8154732e-16 0.99310536 -0.98959600
v 0.37870199 0.99310536 -0.91426749
v 0.69975004 0.99310536 -0.69975004
v 0.91426749 0.99310536 -0.37870199
vn 0.89090915 0.45418155 -4.2860639e-16
vn 0.82309273 0.45418155 0.34093617
vn 0.62996790 0.45418155 0.62996790
vn 0.34093617 0.45418155 0.82309273
vn 0.0000000e+0 0.45418155 0.89090915
vn -0.34093617 0.45418155 0.82309273
vn -0.62996790 0.45418155 0.62996790
vn -0.82309273 0.45418155 0.34093617
vn -0.89090915 0.45418155 -1.8909105e-16
vn -0.82309273 0.45418155 -0.34093617
vn -0.62996790 0.45418155 -0.62996790
vn -0.34093617 0.45418155 -0.82309273
vn -1.1345463e-16 0.45418155 -0.89090915
vn 0.34093617 0.45418155 -0.82309273
vn 0.62996790 0.45418155 -0.62996790
vn 0.82309273 0.45418155 -0.34093617
vn 0.89090915 -0.45418155 -1.6387891e-16
vn 0.82309273 -0.45418155 0.34093617
vn 0.62996790 -0.45418155 0.62996790
vn 0.34093617 -0.45418155 0.82309273
vn 0.0000000e+0 -0.45418155 0.89090915
vn -0.34093617 -0.45418155 0.82309273
vn -0.62996790 -0.45418155 0.62996790
vn -0.82309273 -0.45418155 0.34093617
vn -0.89090915 -0.45418155 7.5636422e-17
vn -0.82309273 -0.45418155 -0.34093617
vn -0.62996790 -0.45418155 -0.62996790
vn -0.34093617 -0.45418155 -0.82309273
vn -1.1345463e-16 -0.45418155 -0.89090915
vn 0.34093617 -0.45418155 -0.82309273
vn 0.62996790 -0.45418155 -0.62996790
vn 0.82309273 -0.45418155 -0.34093617
g Cylinder2_default
usemtl default
s 1
f 129//129 144//144 143//143 142//142 141//141 140//140 139//139 138//138 137//137 136//136 135//135 134//134 133//133 132//132 131//131 130//130
f 129//129 145//145 160//160 144//144
f 130//130 146//146 145//145 129//129
f 131//131 147//147 146//146 130//130
f 132//132 148//148 147//147 131//131
f 133//133 149//149 148//148 132//132
f 134//134 150//150 149//149 133//133
f 135//135 151//151 150//150 134//134
f 136//136 152//152 151//151 135//135
f 137//137 153//153 152//152 136//136
f 138//138 154//154 153//153 137//137
f 139//139 155//155 154//154 138//138
f 140//140 156//156 155//155 139//139
f 141//141 157//157 156//156 140//140
f 142//142 158//158 157//157 141//141
f 143//143 159//159 158//158 142//142
f 144//144 160//160 159//159 143//143
f 146//146 147//147 148//148 149//149 150//150 151//151 152//152 153//153 154//154 155//155 156//156 157//157 158//158 159//159 160//160 145//145
o Cube1
#72 vertices, 42 faces
v -1.29800000 -3.2532802e-3 -0.91411378
v -0.91411378 -3.2532802e-3 -1.29800000
v -1.29800000 -3.2532802e-3 0.91411378
v -0.91411378 -3.2532802e-3 1.29800000
v -1.29800000 2.59274672 -0.91411378
v -0.91411378 2.59274672 -1.29800000
v -1.29800000 2.59274672 0.91411378
v -0.91411378 2.59274672 1.29800000
v 0.91411378 -3.2532802e-3 -1.29800000
v 1.29800000 -3.2532802e-3 -0.91411378
v 1.29800000 -3.2532802e-3 0.91411378
v 0.91411378 -3.2532802e-3 1.29800000
v 0.91411378 2.59274672 -1.29800000
v 1.29800000 2.59274672 -0.91411378
v 1.29800000 2.59274672 0.91411378
v 0.91411378 2.59274672 1.29800000
v -1.29800000 0.51594672 -0.91411378
v -1.29800000 1.03514672 -0.91411378
v -1.29800000 1.55434672 -0.91411378
v -1.29800000 2.07354672 -0.91411378
v -1.29800000 2.07354672 0.91411378
v -1.29800000 1.55434672 0.91411378
v -1.29800000 1.03514672 0.91411378
v -1.29800000 0.51594672 0.91411378
v 0.91411378 2.07354672 1.29800000
v 0.91411378 1.55434672 1.29800000
v 0.91411378 1.03514672 1.29800000
v 0.91411378 0.51594672 1.29800000
v 1.29800000 0.51594672 0.91411378
v 1.29800000 1.03514672 0.91411378
v 1.29800000 1.55434672 0.91411378
v 1.29800000 2.07354672 0.91411378
v -0.91411378 2.07354672 -1.29800000
v -0.91411378 1.55434672 -1.29800000
v -0.91411378 1.03514672 -1.29800000
v -0.91411378 0.51594672 -1.29800000
v 0.91411378 0.51594672 -1.29800000
v 0.91411378 1.03514672 -1.29800000
v 0.91411378 1.55434672 -1.29800000
v 0.91411378 2.07354672 -1.29800000
v 1.29800000 2.07354672 -0.91411378
v 1.29800000 1.55434672 -0.91411378
v 1.29800000 1.03514672 -0.91411378
v 1.29800000 0.51594672 -0.91411378
v -0.91411378 0.51594672 1.29800000
v -0.91411378 1.03514672 1.29800000
v -0.91411378 1.55434672 1.29800000
v -0.91411378 2.07354672 1.29800000
v -1.62218928 -3.2532802e-3 -1.04839738
v -1.04839738 -3.2532802e-3 -1.62218928
v -1.62218928 -3.2532802e-3 1.04839738
v -1.04839738 -3.2532802e-3 1.62218928
v 1.04839738 -3.2532802e-3 -1.62218928
v 1.62218928 -3.2532802e-3 -1.04839738
v 1.62218928 -3.2532802e-3 1.04839738
v 1.04839738 -3.2532802e-3 1.62218928
v -1.62218928 0.38439767 -1.04839738
v -1.50065381 0.51594672 -0.99805573
v -1.62218928 0.38439767 1.04839738
v -1.50065381 0.51594672 0.99805573
v 1.04839738 0.38439767 1.62218928
v 0.99805573 0.51594672 1.50065381
v 1.62218928 0.38439767 1.04839738
v 1.50065381 0.51594672 0.99805573
v -1.04839738 0.38439767 -1.62218928
v -0.99805573 0.51594672 -1.50065381
v 1.04839738 0.38439767 -1.62218928
v 0.99805573 0.51594672 -1.50065381
v 1.62218928 0.38439767 -1.04839738
v 1.50065381 0.51594672 -0.99805573
v -1.04839738 0.38439767 1.62218928
v -0.99805573 0.51594672 1.50065381
vn 0.0000000e+0 -1.00000000 -2.2431650e-20
vn 0.0000000e+0 -1.00000000 -2.2431650e-20
vn 0.0000000e+0 -1.00000000 -2.2431650e-20
vn 0.0000000e+0 -1.00000000 -2.2431650e-20
vn -0.81251992 0.47596315 -0.33655677
vn -0.33655677 0.47596315 -0.81251992
vn -0.81251992 0.47596315 0.33655677
vn -0.33655677 0.47596315 0.81251992
vn 0.0000000e+0 -1.00000000 -2.2431650e-20
vn 0.0000000e+0 -1.00000000 -2.2431650e-20
vn 0.0000000e+0 -1.00000000 -2.2431650e-20
vn 0.0000000e+0 -1.00000000 -2.2431650e-20
vn 0.33655677 0.47596315 -0.81251992
vn 0.81251992 0.47596315 -0.33655677
vn 0.81251992 0.47596315 0.33655677
vn 0.33655677 0.47596315 0.81251992
vn -0.62694312 0.73450956 -0.25968834
vn -0.92387953 0.0000000e+0 -0.38268343
vn -0.92387953 0.0000000e+0 -0.38268343
vn -0.92387953 0.0000000e+0 -0.38268343
vn -0.92387953 0.0000000e+0 0.38268343
vn -0.92387953 0.0000000e+0 0.38268343
vn -0.92387953 0.0000000e+0 0.38268343
vn -0.62694312 0.73450956 0.25968834
vn 0.38268343 0.0000000e+0 0.92387953
vn 0.38268343 0.0000000e+0 0.92387953
vn 0.38268343 0.0000000e+0 0.92387953
vn 0.25968834 0.73450956 0.62694312
vn 0.62694312 0.73450956 0.25968834
vn 0.92387953 0.0000000e+0 0.38268343
vn 0.92387953 0.0000000e+0 0.38268343
vn 0.92387953 0.0000000e+0 0.38268343
vn -0.38268343 0.0000000e+0 -0.92387953
vn -0.38268343 0.0000000e+0 -0.92387953
vn -0.38268343 0.0000000e+0 -0.92387953
vn -0.25968834 0.73450956 -0.62694312
vn 0.25968834 0.73450956 -0.62694312
vn 0.38268343 0.0000000e+0 -0.92387953
vn 0.38268343 0.0000000e+0 -0.92387953
vn 0.38268343 0.0000000e+0 -0.92387953
vn 0.92387953 0.0000000e+0 -0.38268343
vn 0.92387953 0.0000000e+0 -0.38268343
vn 0.92387953 0.0000000e+0 -0.38268343
vn 0.62694312 0.73450956 -0.25968834
vn -0.25968834 0.73450956 0.62694312
vn -0.38268343 0.0000000e+0 0.92387953
vn -0.38268343 0.0000000e+0 0.92387953
vn -0.38268343 0.0000000e+0 0.92387953
vn -0.62694312 -0.73450956 -0.25968834
vn -0.25968834 -0.73450956 -0.62694312
vn -0.62694312 -0.73450956 0.25968834
vn -0.25968834 -0.73450956 0.62694312
vn 0.25968834 -0.73450956 -0.62694312
vn 0.62694312 -0.73450956 -0.25968834
vn 0.62694312 -0.73450956 0.25968834
vn 0.25968834 -0.73450956 0.62694312
vn -0.85074331 0.38994553 -0.35238942
vn -0.34626708 0.92710699 -0.14342852
vn -0.85074331 0.38994553 0.35238942
vn -0.34626708 0.92710699 0.14342852
vn 0.35238942 0.38994553 0.85074331
vn 0.14342852 0.92710699 0.34626708
vn 0.85074331 0.38994553 0.35238942
vn 0.34626708 0.92710699 0.14342852
vn -0.35238942 0.38994553 -0.85074331
vn -0.14342852 0.92710699 -0.34626708
vn 0.35238942 0.38994553 -0.85074331
vn 0.14342852 0.92710699 -0.34626708
vn 0.85074331 0.38994553 -0.35238942
vn 0.34626708 0.92710699 -0.14342852
vn -0.35238942 0.38994553 0.85074331
vn -0.14342852 0.92710699 0.34626708
g Cube1_default
usemtl default
s 1
f 161//161 162//162 169//169 170//170 171//171 172//172 164//164 163//163
f 162//162 210//210 213//213 169//169
f 163//163 211//211 209//209 161//161
f 164//164 212//212 211//211 163//163
f 165//165 180//180 179//179 178//178 177//177 184//184 183//183 182//182 181//181 167//167
f 166//166 193//193 194//194 195//195 196//196 177//177 178//178 179//179 180//180 165//165
f 167//167 168//168 176//176 175//175 174//174 173//173 166//166 165//165
f 168//168 208//208 207//207 206//206 205//205 188//188 187//187 186//186 185//185 176//176
f 169//169 213//213 214//214 170//170
f 170//170 214//214 215//215 171//171
f 171//171 215//215 216//216 172//172
f 172//172 216//216 212//212 164//164
f 173//173 200//200 199//199 198//198 197//197 196//196 195//195 194//194 193//193 166//166
f 174//174 201//201 202//202 203//203 204//204 197//197 198//198 199//199 200//200 173//173
f 175//175 192//192 191//191 190//190 189//189 204//204 203//203 202//202 201//201 174//174
f 181//181 182//182 183//183 184//184 205//205 206//206 207//207 208//208 168//168 167//167
f 184//184 177//177 218//218 220//220
f 185//185 186//186 187//187 188//188 189//189 190//190 191//191 192//192 175//175 176//176
f 188//188 205//205 232//232 222//222
f 196//196 197//197 228//228 226//226
f 204//204 189//189 224//224 230//230
f 209//209 210//210 162//162 161//161
f 209//209 211//211 219//219 217//217
f 212//212 216//216 221//221 231//231
f 213//213 210//210 225//225 227//227
f 215//215 214//214 229//229 223//223
f 217//217 219//219 220//220 218//218
f 217//217 225//225 210//210 209//209
f 218//218 226//226 225//225 217//217
f 219//219 231//231 232//232 220//220
f 220//220 232//232 205//205 184//184
f 222//222 224//224 189//189 188//188
f 223//223 221//221 216//216 215//215
f 223//223 229//229 230//230 224//224
f 224//224 222//222 221//221 223//223
f 226//226 218//218 177//177 196//196
f 227//227 225//225 226//226 228//228
f 227//227 229//229 214//214 213//213
f 228//228 230//230 229//229 227//227
f 230//230 228//228 197//197 204//204
f 231//231 219//219 211//211 212//212
f 231//231 221//221 222//222 232//232
