# Exported from Wings 3D 2.3
mtllib Standee.mtl
o Cylinder4
#32 vertices, 18 faces
v 0.22704917 2.44319601 0.96959313
v 0.21903369 2.40289945 0.96959313
v 0.19620752 2.36873767 0.96959313
v 0.16204574 2.34591150 0.96959313
v 0.12174917 2.33789601 0.96959313
v 8.1452608e-2 2.34591150 0.96959313
v 4.7290830e-2 2.36873767 0.96959313
v 2.4464659e-2 2.40289945 0.96959313
v 1.6449174e-2 2.44319601 0.96959313
v 2.4464659e-2 2.48349258 0.96959313
v 4.7290830e-2 2.51765436 0.96959313
v 8.1452608e-2 2.54048053 0.96959313
v 0.12174917 2.54849601 0.96959313
v 0.16204574 2.54048053 0.96959313
v 0.19620752 2.51765436 0.96959313
v 0.21903369 2.48349258 0.96959313
v 0.22704917 2.44319601 -0.96959313
v 0.21903369 2.40289945 -0.96959313
v 0.19620752 2.36873767 -0.96959313
v 0.16204574 2.34591150 -0.96959313
v 0.12174917 2.33789601 -0.96959313
v 8.1452608e-2 2.34591150 -0.96959313
v 4.7290830e-2 2.36873767 -0.96959313
v 2.4464659e-2 2.40289945 -0.96959313
v 1.6449174e-2 2.44319601 -0.96959313
v 2.4464659e-2 2.48349258 -0.96959313
v 4.7290830e-2 2.51765436 -0.96959313
v 8.1452608e-2 2.54048053 -0.96959313
v 0.12174917 2.54849601 -0.96959313
v 0.16204574 2.54048053 -0.96959313
v 0.19620752 2.51765436 -0.96959313
v 0.21903369 2.48349258 -0.96959313
vn 0.89090915 -1.6387891e-16 0.45418155
vn 0.82309273 -0.34093617 0.45418155
vn 0.62996790 -0.62996790 0.45418155
vn 0.34093617 -0.82309273 0.45418155
vn -8.8242492e-17 -0.89090915 0.45418155
vn -0.34093617 -0.82309273 0.45418155
vn -0.62996790 -0.62996790 0.45418155
vn -0.82309273 -0.34093617 0.45418155
vn -0.89090915 9.4545527e-16 0.45418155
vn -0.82309273 0.34093617 0.45418155
vn -0.62996790 0.62996790 0.45418155
vn -0.34093617 0.82309273 0.45418155
vn -1.5127284e-16 0.89090915 0.45418155
vn 0.34093617 0.82309273 0.45418155
vn 0.62996790 0.62996790 0.45418155
vn 0.82309273 0.34093617 0.45418155
vn 0.89090915 -5.0424281e-16 -0.45418155
vn 0.82309273 -0.34093617 -0.45418155
vn 0.62996790 -0.62996790 -0.45418155
vn 0.34093617 -0.82309273 -0.45418155
vn -1.8909105e-16 -0.89090915 -0.45418155
vn -0.34093617 -0.82309273 -0.45418155
vn -0.62996790 -0.62996790 -0.45418155
vn -0.82309273 -0.34093617 -0.45418155
vn -0.89090915 6.0509137e-16 -0.45418155
vn -0.82309273 0.34093617 -0.45418155
vn -0.62996790 0.62996790 -0.45418155
vn -0.34093617 0.82309273 -0.45418155
vn -2.5212141e-16 0.89090915 -0.45418155
vn 0.34093617 0.82309273 -0.45418155
vn 0.62996790 0.62996790 -0.45418155
vn 0.82309273 0.34093617 -0.45418155
g Cylinder4_default
usemtl default
s 1
f 1//1 16//16 15//15 14//14 13//13 12//12 11//11 10//10 9//9 8//8 7//7 6//6 5//5 4//4 3//3 2//2
f 1//1 17//17 32//32 16//16
f 2//2 18//18 17//17 1//1
f 3//3 19//19 18//18 2//2
f 4//4 20//20 19//19 3//3
f 5//5 21//21 20//20 4//4
f 6//6 22//22 21//21 5//5
f 7//7 23//23 22//22 6//6
f 8//8 24//24 23//23 7//7
f 9//9 25//25 24//24 8//8
f 10//10 26//26 25//25 9//9
f 11//11 27//27 26//26 10//10
f 12//12 28//28 27//27 11//11
f 13//13 29//29 28//28 12//12
f 14//14 30//30 29//29 13//13
f 15//15 31//31 30//30 14//14
f 16//16 32//32 31//31 15//15
f 18//18 19//19 20//20 21//21 22//22 23//23 24//24 25//25 26//26 27//27 28//28 29//29 30//30 31//31 32//32 17//17
o Cube2
#26 vertices, 16 faces
v -0.12608165 2.34505122 -1.00000000
v -0.12608165 2.34505122 1.00000000
v -3.5604974e-2 2.55433087 -1.00000000
v -3.5604974e-2 2.55433087 1.00000000
v 7.9526431e-2 2.25616186 -1.00000000
v 7.9526431e-2 2.25616186 1.00000000
v 0.17000310 2.46544151 -1.00000000
v 0.17000310 2.46544151 1.00000000
v -0.12608165 2.34505122 -0.66666667
v -0.12608165 2.34505122 -0.33333333
v -0.12608165 2.34505122 -1.1102230e-16
v -0.12608165 2.34505122 0.33333333
v -0.12608165 2.34505122 0.66666667
v 7.9526431e-2 2.25616186 -0.66666667
v 7.9526431e-2 2.25616186 -0.33333333
v 7.9526431e-2 2.25616186 -1.1102230e-16
v 7.9526431e-2 2.25616186 0.33333333
v 7.9526431e-2 2.25616186 0.66666667
v -0.90261235 -1.5602295e-2 -0.66666667
v -1.10822043 7.3287067e-2 -0.66666667
v -1.10822043 7.3287067e-2 -1.00000000
v -0.90261235 -1.5602295e-2 -1.00000000
v -1.10822043 7.3287067e-2 0.66666667
v -0.90261235 -1.5602295e-2 0.66666667
v -0.90261235 -1.5602295e-2 1.00000000
v -1.10822043 7.3287067e-2 1.00000000
vn -0.64904851 0.28059942 -0.70710678
vn -0.64904851 0.28059942 0.70710678
vn -0.30083742 0.75905436 -0.57735027
vn -0.30083742 0.75905436 0.57735027
vn 0.64904851 -0.28059942 -0.70710678
vn 0.64904851 -0.28059942 0.70710678
vn 0.75905436 0.30083742 -0.57735027
vn 0.75905436 0.30083742 0.57735027
vn -0.91146081 -5.0720025e-2 0.40824829
vn -0.92964793 -0.36844908 0.0000000e+0
vn -0.92964793 -0.36844908 0.0000000e+0
vn -0.92964793 -0.36844908 0.0000000e+0
vn -0.91146081 -5.0720025e-2 -0.40824829
vn 0.58745251 -0.69873663 0.40824829
vn 0.36844908 -0.92964793 0.0000000e+0
vn 0.36844908 -0.92964793 0.0000000e+0
vn 0.36844908 -0.92964793 0.0000000e+0
vn 0.58745251 -0.69873663 -0.40824829
vn 0.30083742 -0.75905436 0.57735027
vn -0.75905436 -0.30083742 0.57735027
vn -0.75905436 -0.30083742 -0.57735027
vn 0.30083742 -0.75905436 -0.57735027
vn -0.75905436 -0.30083742 -0.57735027
vn 0.30083742 -0.75905436 -0.57735027
vn 0.30083742 -0.75905436 0.57735027
vn -0.75905436 -0.30083742 0.57735027
g Cube2_default
usemtl default
s 1
f 33//33 53//53 52//52 41//41
f 34//34 38//38 40//40 36//36
f 34//34 58//58 57//57 38//38
f 35//35 39//39 37//37 33//33
f 36//36 40//40 39//39 35//35
f 37//37 39//39 40//40 38//38 50//50 49//49 48//48 47//47 46//46
f 37//37 54//54 53//53 33//33
f 38//38 57//57 56//56 50//50
f 41//41 42//42 43//43 44//44 45//45 34//34 36//36 35//35 33//33
f 41//41 46//46 47//47 48//48 49//49 50//50 45//45 44//44 43//43 42//42
f 41//41 52//52 51//51 46//46
f 45//45 55//55 58//58 34//34
f 46//46 51//51 54//54 37//37
f 50//50 56//56 55//55 45//45
f 52//52 53//53 54//54 51//51
f 56//56 57//57 58//58 55//55
o Cube1
#42 vertices, 26 faces
v 0.70984695 0.44960089 -1.44958000
v 0.70984695 0.44960089 1.44958000
v -0.41405129 4.63819732 -1.44958000
v -0.41405129 4.63819732 1.44958000
v 0.96440254 0.51790410 -1.44958000
v 0.96440254 0.51790410 1.44958000
v -0.15949571 4.70650053 -1.44958000
v -0.15949571 4.70650053 1.44958000
v 0.91331174 0.70831168 1.25243712
v 0.91331174 0.70831168 -1.25243712
v -0.10840491 4.51609295 -1.25243712
v -0.10840491 4.51609295 1.25243712
v 0.80120011 0.67822951 1.25243712
v 0.80120011 0.67822951 -1.25243712
v -0.22051654 4.48601078 -1.25243712
v -0.22051654 4.48601078 1.25243712
v 0.70984695 0.44960089 -1.15966400
v 0.70984695 0.44960089 -0.86974800
v 0.70984695 0.44960089 -0.57983200
v 0.70984695 0.44960089 -0.28991600
v 0.70984695 0.44960089 -1.1102230e-16
v 0.70984695 0.44960089 0.28991600
v 0.70984695 0.44960089 0.57983200
v 0.70984695 0.44960089 0.86974800
v 0.70984695 0.44960089 1.15966400
v 0.96440254 0.51790410 -1.15966400
v 0.96440254 0.51790410 -0.86974800
v 0.96440254 0.51790410 -0.57983200
v 0.96440254 0.51790410 -0.28991600
v 0.96440254 0.51790410 -1.1102230e-16
v 0.96440254 0.51790410 0.28991600
v 0.96440254 0.51790410 0.57983200
v 0.96440254 0.51790410 0.86974800
v 0.96440254 0.51790410 1.15966400
v 0.82967957 3.0030875e-3 -0.86974800
v 0.82967957 3.0030875e-3 -1.15966400
v 1.08423516 7.1306296e-2 -1.15966400
v 1.08423516 7.1306296e-2 -0.86974800
v 0.82967957 3.0030875e-3 1.15966400
v 0.82967957 3.0030875e-3 0.86974800
v 1.08423516 7.1306296e-2 0.86974800
v 1.08423516 7.1306296e-2 1.15966400
vn -0.40800144 -0.70724924 -0.57735027
vn -0.40800144 -0.70724924 0.57735027
vn -0.70724924 0.40800144 -0.57735027
vn -0.70724924 0.40800144 0.57735027
vn 0.89440140 -0.18270051 -0.40824829
vn 0.89440140 -0.18270051 0.40824829
vn 0.68280124 0.60590081 -0.40824829
vn 0.68280124 0.60590081 0.40824829
vn 0.68280124 0.60590081 -0.40824829
vn 0.68280124 0.60590081 0.40824829
vn 0.89440140 -0.18270051 0.40824829
vn 0.89440140 -0.18270051 -0.40824829
vn 0.40800144 0.70724924 -0.57735027
vn 0.40800144 0.70724924 0.57735027
vn 0.70724924 -0.40800144 0.57735027
vn 0.70724924 -0.40800144 -0.57735027
vn -0.68280124 -0.60590081 -0.40824829
vn -0.68280124 -0.60590081 0.40824829
vn -0.49969767 -0.86619988 0.0000000e+0
vn -0.49969767 -0.86619988 0.0000000e+0
vn -0.49969767 -0.86619988 0.0000000e+0
vn -0.49969767 -0.86619988 0.0000000e+0
vn -0.49969767 -0.86619988 0.0000000e+0
vn -0.68280124 -0.60590081 -0.40824829
vn -0.68280124 -0.60590081 0.40824829
vn 0.89440140 -0.18270051 -0.40824829
vn 0.89440140 -0.18270051 0.40824829
vn 0.86619988 -0.49969767 0.0000000e+0
vn 0.86619988 -0.49969767 0.0000000e+0
vn 0.86619988 -0.49969767 0.0000000e+0
vn 0.86619988 -0.49969767 0.0000000e+0
vn 0.86619988 -0.49969767 0.0000000e+0
vn 0.89440140 -0.18270051 -0.40824829
vn 0.89440140 -0.18270051 0.40824829
vn -0.40800144 -0.70724924 0.57735027
vn -0.40800144 -0.70724924 -0.57735027
vn 0.70724924 -0.40800144 -0.57735027
vn 0.70724924 -0.40800144 0.57735027
vn -0.40800144 -0.70724924 0.57735027
vn -0.40800144 -0.70724924 -0.57735027
vn 0.70724924 -0.40800144 -0.57735027
vn 0.70724924 -0.40800144 0.57735027
g Cube1_default
usemtl default
s 1
f 59//59 63//63 84//84 75//75
f 60//60 64//64 66//66 62//62
f 60//60 83//83 92//92 64//64
f 61//61 65//65 63//63 59//59
f 62//62 66//66 65//65 61//61
f 63//63 68//68 67//67 64//64 92//92 91//91 90//90 89//89 88//88 87//87 86//86 85//85 84//84
f 64//64 67//67 70//70 66//66
f 65//65 69//69 68//68 63//63
f 66//66 70//70 69//69 65//65
f 67//67 71//71 74//74 70//70
f 68//68 72//72 71//71 67//67
f 69//69 73//73 72//72 68//68
f 70//70 74//74 73//73 69//69
f 72//72 73//73 74//74 71//71
f 75//75 76//76 77//77 78//78 79//79 80//80 81//81 82//82 83//83 60//60 62//62 61//61 59//59
f 75//75 94//94 93//93 76//76
f 76//76 85//85 86//86 87//87 88//88 89//89 90//90 91//91 82//82 81//81 80//80 79//79 78//78 77//77
f 76//76 93//93 96//96 85//85
f 82//82 98//98 97//97 83//83
f 83//83 97//97 100//100 92//92
f 84//84 95//95 94//94 75//75
f 85//85 96//96 95//95 84//84
f 91//91 99//99 98//98 82//82
f 92//92 100//100 99//99 91//91
f 94//94 95//95 96//96 93//93
f 98//98 99//99 100//100 97//97
